<?xml version="1.0" encoding="utf-8"?>
<!-- Generator: Adobe Illustrator 25.0.0, SVG Export Plug-In . SVG Version: 6.00 Build 0)  -->
<svg version="1.1" id="Capa_1" xmlns="http://www.w3.org/2000/svg" xmlns:xlink="http://www.w3.org/1999/xlink" x="0px" y="0px"
	 viewBox="0 0 159.5 242.06" style="enable-background:new 0 0 159.5 242.06;" xml:space="preserve">
<style type="text/css">
	.st0{opacity:0.1;}
	.st1{opacity:0.1;fill:#0061ED;}
	.st2{fill:#EDEDED;}
	.st3{fill:#0061ED;}
	.st4{fill:#3361E9;}
</style>
<g>
	<path class="st0" d="M146.77,148.34v78.81c0,2.91-2.38,5.29-5.29,5.29H15.98c-2.91,0-5.29-2.38-5.29-5.29v-78.81h30.02v36.44
		c0,2.91-2.38,5.29-5.29,5.29h0c-2.91,0-5.29,2.38-5.29,5.29v12.39c0,2.91,2.38,5.29,5.29,5.29h86.61c2.91,0,5.29-2.38,5.29-5.29
		v-12.39c0-2.91-2.38-5.29-5.29-5.29h0c-2.91,0-5.29-2.38-5.29-5.29v-36.44H146.77z"/>
	<path class="st1" d="M141.49,12.26H15.98c-2.91,0-5.29,2.38-5.29,5.29v130.79h30.02V111.9c0-2.91-2.38-5.29-5.29-5.29h0
		c-2.91,0-5.29-2.38-5.29-5.29V88.94c0-2.91,2.38-5.29,5.29-5.29h86.61c2.91,0,5.29,2.38,5.29,5.29v12.39
		c0,2.91-2.38,5.29-5.29,5.29h0c-2.91,0-5.29,2.38-5.29,5.29v36.43h30.03V17.54C146.77,14.64,144.39,12.26,141.49,12.26
		 M116.74,58.96c0,2.91-2.38,5.29-5.29,5.29H46c-2.91,0-5.29-2.38-5.29-5.29v-22c0-2.91,2.38-5.29,5.29-5.29h65.45
		c2.91,0,5.29,2.38,5.29,5.29V58.96z"/>
</g>
</svg>
