<?xml version="1.0" encoding="utf-8"?>
<!-- Generator: Adobe Illustrator 25.0.0, SVG Export Plug-In . SVG Version: 6.00 Build 0)  -->
<svg version="1.1" id="Capa_1" xmlns="http://www.w3.org/2000/svg" xmlns:xlink="http://www.w3.org/1999/xlink" x="0px" y="0px"
	 viewBox="0 0 1190.55 841.89" style="enable-background:new 0 0 1190.55 841.89;" xml:space="preserve">
<style type="text/css">
	.st0{fill:#EDEDED;}
	.st1{fill:#0061ED;}
	.st2{fill:#3361E9;}
</style>
<rect x="-1.97" y="66.08" class="st0" width="1191.02" height="23.14"/>
<g>
	<path class="st1" d="M1038.14,32.35h-3.73l-3.11,8.03l-3.01,7.78h4.13l1.04-2.8h5.6l1.08,2.8h4.2l-3.06-7.78L1038.14,32.35z
		 M1034.33,42.15l0.63-1.77l1.34-3.78l1.28,3.78l0.6,1.77H1034.33z"/>
	<polygon class="st1" points="1060.21,35.65 1064.52,35.65 1064.52,40.38 1064.52,48.16 1068.52,48.16 1068.52,40.38 1068.52,35.65 
		1072.9,35.65 1072.9,32.35 1060.21,32.35 	"/>
	<polygon class="st1" points="1075.07,40.38 1075.07,48.16 1085.95,48.16 1085.95,44.86 1079.06,44.86 1079.06,41.91 1085.05,41.91 
		1085.05,40.38 1085.05,38.79 1079.06,38.79 1079.06,35.65 1085.95,35.65 1085.95,32.35 1075.07,32.35 	"/>
	<path class="st1" d="M1096.16,35.6c1.51,0,2.78,0.52,3.88,1.54l1.94-2.82c-1.63-1.33-3.3-2.21-5.83-2.21
		c-5.35,0-8.72,3.75-8.72,8.15c0,0.04,0,0.08,0,0.12c0.06,4.35,3.41,8.03,8.72,8.03c2.53,0,4.2-0.88,5.83-2.21l-1.94-2.82
		c-1.11,1.02-2.37,1.54-3.88,1.54c-2.84,0-4.64-1.99-4.69-4.53c0-0.04,0-0.08,0-0.12C1091.46,37.66,1093.27,35.6,1096.16,35.6"/>
	<path class="st1" d="M1111.11,32.1c-4.86,0-8.38,3.7-8.38,8.15c0,0.04,0,0.08,0,0.12c0.06,4.39,3.57,8.03,8.38,8.03
		c4.81,0,8.31-3.63,8.38-8.03c0-0.04,0-0.08,0-0.12C1119.49,35.81,1115.97,32.1,1111.11,32.1 M1111.11,44.86
		c-2.49,0-4.3-1.92-4.36-4.48c0-0.04,0-0.08,0-0.12c0-2.62,1.83-4.61,4.36-4.61c2.53,0,4.38,1.99,4.38,4.61c0,0.04,0,0.08,0,0.12
		C1115.43,42.94,1113.6,44.86,1111.11,44.86"/>
	<polygon class="st1" points="1121.93,40.38 1121.93,48.16 1125.93,48.16 1125.93,40.38 1125.93,32.35 1121.93,32.35 	"/>
	<polygon class="st1" points="1138.64,32.35 1138.64,40.38 1138.17,40.38 1132.36,32.35 1129.27,32.35 1129.27,40.38 1129.27,48.16 
		1133.27,48.16 1133.27,40.38 1133.27,39.38 1133.99,40.38 1139.57,48.16 1142.64,48.16 1142.64,40.38 1142.64,32.35 	"/>
	<path class="st1" d="M1057.57,45.09c-1.31,0-2.01-1.08-2.35-2.69c1.18-0.36,2.09-1.07,2.67-2.02c0.47-0.76,0.72-1.68,0.72-2.7
		c0-2.87-1.87-5.33-5.31-5.33H1046v8.03v7.78h4v-5.49h1.51c0.23,1.65,1.38,5.74,5.26,5.74c1.63,0,2.69-0.5,3.77-1.29l-1.33-2.67
		C1058.74,44.86,1058.11,45.09,1057.57,45.09 M1050,35.74h2.82c1.08,0,1.76,0.86,1.76,1.99c0,1.11-0.68,1.94-1.76,1.94H1050V35.74z"
		/>
	<g>
		<path d="M1031.63,53.49c0.88,0,1.48,0.26,2,0.66l-0.26,0.51c-0.43-0.31-1.05-0.55-1.77-0.55c-1.61,0-2.58,1.17-2.58,2.54
			c0,1.38,0.98,2.54,2.59,2.54c0.72,0,1.34-0.23,1.77-0.54l0.26,0.52c-0.52,0.38-1.12,0.64-1.99,0.64c-2.09,0-3.31-1.45-3.31-3.16
			S1029.55,53.49,1031.63,53.49z"/>
		<path d="M1037.4,53.49c1.75,0,3.17,1.42,3.17,3.16s-1.42,3.16-3.17,3.16c-1.75,0-3.17-1.42-3.17-3.16S1035.65,53.49,1037.4,53.49z
			 M1037.4,59.19c1.36,0,2.48-1.11,2.48-2.54c0-1.43-1.12-2.54-2.48-2.54c-1.36,0-2.48,1.11-2.48,2.54
			C1034.92,58.08,1036.05,59.19,1037.4,59.19z"/>
		<path d="M1042.43,53.58l3.61,4.89v-4.89h0.67v6.12h-0.51l-3.62-4.9v4.9h-0.67v-6.12H1042.43z"/>
		<path d="M1048.9,55.12c0,0.31,0.11,0.7,0.9,0.98l0.99,0.35c0.89,0.28,1.48,0.92,1.48,1.62c0,1.01-0.85,1.73-2.12,1.73
			c-1.19,0-1.98-0.66-2.21-1.42l0.64-0.17c0.15,0.5,0.73,0.98,1.57,0.98c0.89,0,1.43-0.47,1.43-1.08c0-0.56-0.48-0.91-1-1.08
			l-0.99-0.33c-1.16-0.38-1.38-1.04-1.38-1.56c0-1.03,0.92-1.65,1.95-1.65c1.04,0,1.7,0.57,1.88,1.37l-0.61,0.18
			c-0.15-0.61-0.59-0.94-1.28-0.94C1049.48,54.1,1048.9,54.47,1048.9,55.12z"/>
		<path d="M1053.46,53.58h0.67v3.88c0,1.15,0.79,1.72,1.71,1.72c0.92,0,1.7-0.57,1.7-1.72v-3.88h0.67v3.88
			c0,1.54-1.09,2.33-2.38,2.33c-1.29,0-2.39-0.79-2.39-2.33V53.58z"/>
		<path d="M1063.48,59.7h-3.54v-6.12h0.67v5.56h2.87V59.7z"/>
		<path d="M1062.76,54.14v-0.56h4.95v0.56h-2.14v5.56h-0.67v-5.56H1062.76z"/>
		<path d="M1071.1,53.49c1.75,0,3.17,1.42,3.17,3.16s-1.42,3.16-3.17,3.16c-1.75,0-3.17-1.42-3.17-3.16S1069.36,53.49,1071.1,53.49z
			 M1071.1,59.19c1.36,0,2.48-1.11,2.48-2.54c0-1.43-1.12-2.54-2.48-2.54c-1.36,0-2.48,1.11-2.48,2.54
			C1068.62,58.08,1069.75,59.19,1071.1,59.19z"/>
		<path d="M1075.6,59.7v-6.12h2.51c1.14,0,1.78,0.88,1.78,1.89c0,0.92-0.53,1.69-1.49,1.82c0.05,0.7,0.47,1.93,1.3,1.93
			c0.27,0,0.52-0.1,0.69-0.25c0.08,0.17,0.16,0.31,0.25,0.47c-0.27,0.25-0.63,0.36-0.97,0.36c-1.41,0-1.85-1.7-1.91-2.48h-1.49v2.39
			H1075.6z M1076.28,56.76h1.7c0.76,0,1.22-0.55,1.22-1.29c0-0.75-0.46-1.32-1.22-1.32h-1.7V56.76z"/>
		<path d="M1082.87,51.8l-0.86,1.21h-0.56l0.7-1.21H1082.87z M1082.22,59.7h-0.67v-6.12h0.67V59.7z"/>
		<path d="M1085.65,53.58h0.8l2.41,6.12h-0.7l-0.51-1.31h-3.21l-0.51,1.31h-0.71L1085.65,53.58z M1084.66,57.83h2.8l-1.4-3.59
			L1084.66,57.83z"/>
		<path d="M1092.39,55.12c0,0.31,0.11,0.7,0.9,0.98l0.99,0.35c0.89,0.28,1.48,0.92,1.48,1.62c0,1.01-0.85,1.73-2.12,1.73
			c-1.19,0-1.98-0.66-2.21-1.42l0.64-0.17c0.15,0.5,0.73,0.98,1.57,0.98c0.89,0,1.43-0.47,1.43-1.08c0-0.56-0.48-0.91-1-1.08
			l-0.99-0.33c-1.16-0.38-1.38-1.04-1.38-1.56c0-1.03,0.92-1.65,1.95-1.65c1.04,0,1.7,0.57,1.88,1.37l-0.61,0.18
			c-0.15-0.61-0.59-0.94-1.28-0.94C1092.97,54.1,1092.39,54.47,1092.39,55.12z"/>
		<path d="M1099.74,53.49c1.75,0,3.17,1.42,3.17,3.16s-1.42,3.16-3.17,3.16c-1.75,0-3.17-1.42-3.17-3.16
			S1097.99,53.49,1099.74,53.49z M1099.74,59.19c1.36,0,2.48-1.11,2.48-2.54c0-1.43-1.12-2.54-2.48-2.54
			c-1.36,0-2.48,1.11-2.48,2.54C1097.26,58.08,1098.38,59.19,1099.74,59.19z"/>
		<path d="M1104.63,55.12c0,0.31,0.11,0.7,0.9,0.98l0.99,0.35c0.89,0.28,1.48,0.92,1.48,1.62c0,1.01-0.85,1.73-2.12,1.73
			c-1.19,0-1.98-0.66-2.21-1.42l0.64-0.17c0.15,0.5,0.73,0.98,1.57,0.98c0.89,0,1.43-0.47,1.43-1.08c0-0.56-0.48-0.91-1-1.08
			l-0.99-0.33c-1.16-0.38-1.38-1.04-1.38-1.56c0-1.03,0.92-1.65,1.95-1.65c1.04,0,1.7,0.57,1.88,1.37l-0.61,0.18
			c-0.15-0.61-0.59-0.94-1.28-0.94C1105.21,54.1,1104.63,54.47,1104.63,55.12z"/>
		<path d="M1108.48,54.14v-0.56h4.95v0.56h-2.14v5.56h-0.67v-5.56H1108.48z"/>
		<path d="M1114.48,53.58h3.8v0.56h-3.13v2.28h2.74v0.57h-2.74v2.15h3.13v0.56h-3.8V53.58z"/>
		<path d="M1120.15,53.58l3.61,4.89v-4.89h0.67v6.12h-0.51l-3.62-4.9v4.9h-0.67v-6.12H1120.15z"/>
		<path d="M1126.91,59.7h-0.67v-6.12h0.67V59.7z"/>
		<path d="M1128.72,59.7v-6.12h2.13c1.1,0,1.96,0.56,1.96,1.55c0,0.66-0.38,1.24-1.21,1.45c1,0.12,1.52,0.78,1.52,1.55
			c0,0.96-0.8,1.57-1.98,1.57H1128.72z M1129.39,54.14v2.22h1.11c1.15,0,1.62-0.59,1.62-1.19c0-0.69-0.59-1.03-1.27-1.03H1129.39z
			 M1131.14,59.14c0.74,0,1.29-0.39,1.29-1.03c0-0.65-0.54-1.21-1.73-1.21h-1.3v2.25H1131.14z"/>
		<path d="M1137.99,59.7h-3.54v-6.12h0.67v5.56h2.87V59.7z"/>
		<path d="M1139.02,53.58h3.8v0.56h-3.13v2.28h2.74v0.57h-2.74v2.15h3.13v0.56h-3.8V53.58z"/>
	</g>
</g>

<rect x="582.84" y="776.9" transform="matrix(-1 -1.224647e-16 1.224647e-16 -1 1187.4316 1618.8569)" class="st2" width="21.76" height="65.05"/>
<g>
	<rect x="-2.05" y="30.54" class="st2" width="61.9" height="66.44"/>
</g>
<g>
	<rect x="-2.05" y="143.6" class="st2" width="22.53" height="621.06"/>
</g>
</svg>
